<svg width="133" height="144" viewBox="0 0 133 144" fill="none" xmlns="http://www.w3.org/2000/svg">
<g clip-path="url(#clip0_3202_5984)">
<path d="M34.2771 103.775V83.0916C34.2771 65.6415 48.4914 51.4282 65.9424 51.4282C83.3007 51.4282 97.516 65.6405 97.516 83.0916V103.663V104.582V116.796V117.714V138.653C97.516 140.354 96.6206 141.993 95.2249 142.979L95.2173 142.984C94.324 143.634 93.2675 143.959 92.2094 143.959C91.6195 143.959 90.9821 143.874 90.4499 143.646L90.3249 143.592H90.2901L90.2467 143.578C90.2188 143.568 90.1866 143.558 90.1505 143.545C90.0663 143.517 89.9601 143.482 89.8351 143.44C89.4763 143.321 88.9557 143.151 88.2968 142.947C86.9794 142.539 85.1089 141.996 82.8716 141.453C78.4026 140.367 72.4448 139.276 66.4936 139.276C60.543 139.276 54.2649 140.39 49.4796 141.497C47.0831 142.051 45.0537 142.605 43.6169 143.021C42.8983 143.229 42.328 143.402 41.9347 143.524C41.7967 143.566 41.6794 143.603 41.5865 143.632C41.5474 143.644 41.5129 143.655 41.4824 143.664L41.4181 143.684H41.3998L41.2934 143.721C39.6772 144.286 37.8789 143.969 36.4762 142.979C35.0981 142.006 34.2771 140.375 34.2771 138.653V117.419C37.5712 116.691 41.0871 116.04 44.8902 115.531V130.847V131.68L45.7017 131.493C51.2891 130.211 58.946 128.755 66.4936 128.755C73.7659 128.755 80.9632 130.12 86.1733 131.399L86.9947 131.601V130.755V115.694V114.776V102.745V101.827V83.0916C86.9947 71.4293 77.6051 62.0407 65.9424 62.0407C54.2778 62.0407 44.8902 71.5231 44.8902 83.0916V102.071C41.1634 102.567 37.5831 103.135 34.2771 103.775Z" fill="#5160F9" stroke="#4152FF" stroke-width="1.3264"/>
<path d="M129.498 46.4467L74.7596 3.09949C69.5247 -1.03316 62.2689 -1.03316 57.1259 3.09949L2.29606 46.4467C0.826576 47.6405 0 49.2935 0 51.1302V119.182C0 121.202 1.01025 123.131 2.75525 124.232C4.50026 125.335 6.7045 125.427 8.54132 124.6C8.72503 124.508 18.2766 120.1 33.6142 116.794C34.4408 116.61 35.3594 116.426 36.1857 116.243C36.3694 116.243 36.5531 116.151 36.7368 116.151C37.4717 115.967 38.2065 115.876 38.941 115.784C39.2165 115.784 39.4002 115.692 39.6758 115.692C40.4106 115.6 41.1454 115.416 41.8799 115.324C42.1555 115.324 42.3392 115.233 42.6148 115.233C49.5949 114.131 57.4933 113.396 65.9427 113.396C73.1981 113.396 80.0864 113.947 86.3317 114.773V102.743C80.0864 102.008 73.1981 101.457 65.9427 101.457C58.6873 101.457 51.8909 101.916 45.5537 102.743C44.727 102.834 43.8088 102.926 42.9822 103.11C42.7066 103.11 42.3392 103.202 42.0636 103.202C41.3291 103.294 40.5943 103.386 39.8595 103.569C39.4002 103.661 39.0328 103.661 38.5739 103.753C37.9309 103.845 37.288 103.937 36.7368 104.029C36.1857 104.12 35.6349 104.212 35.0838 104.304C34.6246 104.396 34.0734 104.488 33.6142 104.58C24.5217 106.416 17.1745 108.62 11.9395 110.457V54.0692L64.4731 12.4669C65.2998 11.824 66.4939 11.824 67.3202 12.4669L119.854 54.0692V110.457C114.619 108.62 107.272 106.416 98.1794 104.58V116.794C113.425 120.1 122.977 124.508 123.252 124.6C124.079 124.967 124.905 125.151 125.824 125.151C126.926 125.151 128.028 124.875 129.038 124.232C130.783 123.131 131.794 121.202 131.794 119.182V51.1302C131.794 49.2935 130.967 47.6405 129.498 46.4467Z" fill="#090C7D" stroke="#090C7D" stroke-width="1.1606"/>
<path d="M98.171 102.795H94.8716V119.375H98.171V102.795Z" fill="#5160F9"/>
<path d="M89.6644 99.4795H86.3485V116.059H89.6644V99.4795Z" fill="#5160F9"/>
<path d="M71.1273 16.5797C67.0891 13.3246 64.8017 13.3213 60.6819 16.5797L65.9046 9.94775L71.1273 16.5797Z" fill="#202945" stroke="#202945" stroke-width="0.165799"/>
</g>
<defs>
<clipPath id="clip0_3202_5984">
<rect width="133" height="144" fill="white"/>
</clipPath>
</defs>
</svg>
